<mxfile host="app.diagrams.net" modified="2023-06-15T08:23:01.011Z" agent="Mozilla/5.0 (Windows NT 10.0; Win64; x64) AppleWebKit/537.36 (KHTML, like Gecko) Chrome/114.0.0.0 Safari/537.36" version="21.4.0" etag="7qhrzR8wnXMCXMP2eax6" type="github">
  <diagram name="ページ1" id="PUYcnhvGJugyevNpbq7M">
    <mxGraphModel>
      <root>
        <mxCell id="0" />
        <mxCell id="1" parent="0" />
      </root>
    </mxGraphModel>
  </diagram>
</mxfile>
